<svg width="198" height="111" viewBox="0 0 198 111" fill="none" xmlns="http://www.w3.org/2000/svg">
<path fill-rule="evenodd" clip-rule="evenodd" d="M70.2475 0H14.8055L0 73.04H55.4419L70.2475 0ZM19.8383 57.5182C22.5399 58.3573 25.443 58.7768 28.5478 58.7768C32.3783 58.7768 35.7653 58.1375 38.7088 56.859C41.6926 55.5805 44.011 53.8225 45.6642 51.5851C47.3577 49.3477 48.2045 46.8107 48.2045 43.974C48.2045 41.6966 47.64 39.7389 46.511 38.1008C45.382 36.4228 43.7691 35.1443 41.6724 34.2653C40.8371 33.8992 39.9345 33.606 38.9648 33.3858L50.8052 22.3991L52.0148 16.1064H22.3786L20.7456 23.8974H38.6521L28.1244 33.666L26.8543 40.0785H31.3299C33.6686 40.0785 35.4024 40.4581 36.5314 41.2172C37.7007 41.9364 38.2854 43.0551 38.2854 44.5733C38.2854 45.8119 37.9225 46.8906 37.1967 47.8095C36.5112 48.7285 35.4831 49.4277 34.1121 49.9071C32.7815 50.3865 31.1485 50.6263 29.2131 50.6263C26.9551 50.6263 24.818 50.2866 22.802 49.6074C20.8262 48.9282 19.1529 47.9893 17.782 46.7907L13.0643 53.9224C14.8788 55.4806 17.1368 56.6792 19.8383 57.5182Z" fill="white"/>
<path fill-rule="evenodd" clip-rule="evenodd" d="M133.65 0H78.2078L63.4023 73.04H118.844L133.65 0ZM87.8119 56.9188C90.1102 58.1574 92.8319 58.7767 95.977 58.7767C99.2833 58.7767 102.287 58.0775 104.989 56.6791C107.69 55.2408 110.009 53.2631 111.944 50.746C113.88 48.189 115.372 45.2524 116.42 41.9363C117.509 38.6201 118.053 35.0643 118.053 31.2687C118.053 27.9126 117.428 25.0559 116.178 22.6987C114.928 20.3414 113.154 18.5435 110.856 17.3049C108.598 16.0264 105.896 15.3872 102.751 15.3872C99.4849 15.3872 96.481 16.1063 93.7391 17.5447C91.0376 18.943 88.7191 20.9207 86.7837 23.4778C84.8482 25.9948 83.3362 28.9114 82.2475 32.2276C81.1992 35.5437 80.675 39.0996 80.675 42.8952C80.675 46.2113 81.3 49.068 82.5499 51.4652C83.7999 53.8225 85.5539 55.6403 87.8119 56.9188ZM101.783 48.7683C100.372 49.9669 98.739 50.5662 96.8842 50.5662C94.9488 50.5662 93.3964 49.927 92.2271 48.6485C91.0981 47.37 90.5336 45.3723 90.5336 42.6554C90.5336 40.6977 90.7755 38.6201 91.2593 36.4227C91.7432 34.2253 92.4488 32.1477 93.3762 30.1899C94.3439 28.2322 95.5334 26.6541 96.9447 25.4555C98.3559 24.2169 99.9889 23.5976 101.844 23.5976C103.819 23.5976 105.372 24.2369 106.501 25.5154C107.63 26.7539 108.194 28.7516 108.194 31.5084C108.194 33.4661 107.952 35.5437 107.469 37.7412C106.985 39.9386 106.259 42.0162 105.291 43.9739C104.364 45.9316 103.194 47.5298 101.783 48.7683Z" fill="white"/>
<path fill-rule="evenodd" clip-rule="evenodd" d="M197.052 0H141.61L126.805 73.04H182.247L197.052 0ZM162.624 23.8974L155.74 58.0576H165.538L174.006 16.1064H155.74L154.168 23.8974H162.624Z" fill="white"/>
<path fill-rule="evenodd" clip-rule="evenodd" d="M6.10352e-05 102.819C6.10352e-05 102.111 0.541411 101.536 1.2092 101.536H20.8793V104.103H1.2092C0.541411 104.103 6.10352e-05 103.528 6.10352e-05 102.819Z" fill="white"/>
<path d="M36.8081 110.335C35.3295 110.335 34.0358 110.068 32.9269 109.534C31.818 108.987 30.9555 108.234 30.3394 107.275C29.737 106.303 29.4359 105.181 29.4359 103.908C29.4359 102.648 29.6549 101.491 30.093 100.437C30.5448 99.383 31.1745 98.4726 31.9822 97.7059C32.79 96.9393 33.7483 96.3506 34.8572 95.9399C35.9661 95.5155 37.1846 95.3033 38.5125 95.3033C39.8952 95.3033 41.1205 95.5497 42.1884 96.0426C43.2562 96.5354 44.0502 97.2473 44.5705 98.1782L41.0795 100.909C40.7783 100.376 40.3881 99.9648 39.9089 99.6773C39.4298 99.3761 38.8616 99.2256 38.2045 99.2256C37.6295 99.2256 37.1024 99.3351 36.6233 99.5541C36.1578 99.7595 35.7539 100.061 35.4117 100.458C35.0694 100.841 34.8025 101.3 34.6108 101.834C34.4191 102.367 34.3233 102.956 34.3233 103.6C34.3233 104.161 34.4465 104.654 34.6929 105.078C34.9394 105.503 35.2816 105.831 35.7197 106.064C36.1715 106.297 36.6917 106.413 37.2804 106.413C37.8417 106.413 38.3893 106.283 38.9232 106.023C39.4708 105.763 39.9911 105.338 40.4839 104.75L43.3384 107.481C42.4622 108.549 41.4833 109.295 40.4018 109.719C39.3339 110.13 38.136 110.335 36.8081 110.335Z" fill="white"/>
<path d="M54.4787 110.335C52.9864 110.335 51.6927 110.061 50.5975 109.514C49.5159 108.966 48.674 108.213 48.0716 107.255C47.4829 106.283 47.1886 105.167 47.1886 103.908C47.1886 102.634 47.4076 101.478 47.8457 100.437C48.2975 99.383 48.9273 98.4726 49.735 97.7059C50.5427 96.9393 51.501 96.3506 52.6099 95.9399C53.7189 95.5155 54.9305 95.3033 56.2447 95.3033C57.737 95.3033 59.0239 95.5771 60.1054 96.1247C61.2006 96.6723 62.0426 97.4321 62.6312 98.4041C63.2336 99.3625 63.5348 100.471 63.5348 101.731C63.5348 103.004 63.3089 104.168 62.8571 105.222C62.419 106.262 61.7961 107.166 60.9884 107.933C60.1807 108.699 59.2224 109.295 58.1134 109.719C57.0045 110.13 55.7929 110.335 54.4787 110.335ZM54.8894 106.413C55.4918 106.413 56.0188 106.297 56.4706 106.064C56.9361 105.831 57.3331 105.509 57.6617 105.099C57.9902 104.688 58.2367 104.223 58.4009 103.702C58.5652 103.168 58.6474 102.607 58.6474 102.018C58.6474 101.457 58.531 100.971 58.2983 100.56C58.0792 100.136 57.7575 99.8074 57.3331 99.5747C56.9224 99.3419 56.4227 99.2256 55.834 99.2256C55.2453 99.2256 54.7183 99.3419 54.2528 99.5747C53.7873 99.8074 53.3903 100.129 53.0617 100.54C52.7332 100.951 52.4867 101.423 52.3225 101.957C52.1582 102.477 52.076 103.031 52.076 103.62C52.076 104.168 52.1855 104.654 52.4046 105.078C52.6373 105.503 52.9591 105.831 53.3698 106.064C53.7942 106.297 54.3007 106.413 54.8894 106.413Z" fill="white"/>
<path d="M73.816 110.335C72.3238 110.335 71.0779 110.055 70.0786 109.493C69.0792 108.918 68.3673 108.124 67.9429 107.111C67.5322 106.084 67.4637 104.893 67.7375 103.538L69.3187 95.6319H74.1651L72.6044 103.456C72.5086 103.962 72.4744 104.4 72.5017 104.77C72.5291 105.14 72.6181 105.448 72.7687 105.694C72.933 105.941 73.152 106.125 73.4258 106.249C73.6996 106.358 74.0282 106.413 74.4115 106.413C74.877 106.413 75.274 106.317 75.6026 106.125C75.9449 105.934 76.2255 105.619 76.4445 105.181C76.6773 104.743 76.8621 104.168 76.999 103.456L78.5597 95.6319H83.3239L81.7016 103.743C81.2772 105.893 80.4079 107.529 79.0936 108.651C77.7794 109.774 76.0201 110.335 73.816 110.335Z" fill="white"/>
<path d="M85.4428 110.007L88.3177 95.6319H92.3016L97.7024 104.38H96.0185L97.764 95.6319H102.487L99.6122 110.007H95.6284L90.2275 101.259H91.9114L90.1659 110.007H85.4428Z" fill="white"/>
<path d="M107.841 110.007L109.956 99.3898H105.746L106.506 95.6319H119.772L119.012 99.3898H114.803L112.687 110.007H107.841Z" fill="white"/>
<path d="M127.171 100.971H133.578L132.88 104.462H126.473L127.171 100.971ZM126.411 106.351H133.619L132.88 110.007H120.928L123.803 95.6319H135.488L134.749 99.2872H127.828L126.411 106.351Z" fill="white"/>
<path d="M137.518 110.007L140.393 95.6319H146.841C148.744 95.6319 150.216 96.0494 151.256 96.8845C152.296 97.7059 152.817 98.8628 152.817 100.355C152.817 101.56 152.516 102.614 151.913 103.517C151.324 104.421 150.483 105.126 149.387 105.633C148.306 106.139 147.026 106.392 145.547 106.392H140.906L143.494 104.359L142.364 110.007H137.518ZM146.307 110.007L143.35 104.77H148.34L151.338 110.007H146.307ZM143.37 104.934L141.666 102.737H145.794C146.464 102.737 146.985 102.573 147.354 102.244C147.724 101.902 147.909 101.43 147.909 100.827C147.909 100.307 147.744 99.9374 147.416 99.7184C147.101 99.4857 146.663 99.3693 146.102 99.3693H142.344L144.931 97.1104L143.37 104.934Z" fill="white"/>
<path fill-rule="evenodd" clip-rule="evenodd" d="M181.043 104.103H161.373V101.536H181.043C181.711 101.536 182.252 102.111 182.252 102.819C182.252 103.528 181.711 104.103 181.043 104.103Z" fill="white"/>
</svg>
